<!-- Learn about this code on MDN: https://developer.mozilla.org/en-US/docs/Web/SVG/Attribute/color -->

<svg viewBox="0 0 200 200" xmlns="http://www.w3.org/2000/svg">
  <g color="blck">
    <circle r="2" cx="70" cy="20" stroke="currentColor" fill="none" stroke-width="1" />  
    <circle r="2" cx="80" cy="20" stroke="currentColor" fill="none" stroke-width="1" />  
    <circle r="15" cx="75" cy="20" stroke="currentColor" fill="none" stroke-width="1" /> 
    <path d="M60 50 Q 60 35, 75 35 T 90 50" stroke="black" fill="transparent"/>
    <path d="M60 75 Q 60 90, 75 90 T 90 75" stroke="black" fill="transparent"/>
    <path d="M60 50  T 60 75" stroke="black" fill="transparent"/>
    <path d="M90 50 T 90 75" stroke="black" fill="transparent"/>
    <path d="M60 2 70 2 75 20 80 2 T90 2 " stroke="black" fill="transparent"/>
    <path d="M70 90 70 110 T55 110" stroke="black" fill="transparent"/>
    <path d="M80 90 80 110 T95 110" stroke="black" fill="transparent"/>

    <path d="M70 45 70 55 50 45 T70 45" stroke="black" fill="transparent"/>
    <path d="M80 45 80 55 100 45 T80 45" stroke="black" fill="transparent"/>
  </g>
</svg>
